<?xml version="1.0" encoding="utf-8"?>
<!-- Generator: Adobe Illustrator 19.0.0, SVG Export Plug-In . SVG Version: 6.00 Build 0)  -->
<svg version="1.1" id="Layer_1" xmlns="http://www.w3.org/2000/svg" xmlns:xlink="http://www.w3.org/1999/xlink" x="0px" y="0px"
	 viewBox="0 0 224 175" style="enable-background:new 0 0 224 175;" xml:space="preserve">
<style type="text/css">
	.st0{fill:none;stroke:#7A7D80;stroke-width:2;stroke-miterlimit:10;}
</style>
<g>
	<path class="st0" d="M39.8,43.5h-17c-3.5,0-6.4-2.9-6.4-6.4c0-3.5,2.9-6.4,6.4-6.4h17c3.5,0,6.4,2.9,6.4,6.4
		C46.2,40.6,43.3,43.5,39.8,43.5z M79.6,62.5c-4.2,0-7.7-3.5-7.7-7.7V30.7c0-4.2,3.5-7.7,7.7-7.7c4.2,0,7.7,3.5,7.7,7.7v24.1
		C87.3,59,83.8,62.5,79.6,62.5z M37.9,82.3c3.2,0.6,6.5,1,9.8,1c25.1,0,45.4-18.3,45.4-40.9c0-22.6-20.3-40.9-45.4-40.9
		C22.7,1.5,2.3,19.8,2.3,42.4c0,8.7,3,16.8,8.2,23.4"/>
	<path class="st0" d="M37.9,82.3v79.2c0,6.6-5.4,12-12,12h-3.5c-6.6,0-12-5.4-12-12V67.3c0-0.5,0-1,0.1-1.5
		C16.9,74,26.6,80,37.9,82.3z"/>
</g>
<g>
	<path class="st0" d="M178.2,37.1c0-3.5,2.9-6.4,6.4-6.4h17c3.5,0,6.4,2.9,6.4,6.4c0,3.5-2.9,6.4-6.4,6.4h-17
		C181.1,43.5,178.2,40.6,178.2,37.1z M137.1,54.8V30.7c0-4.2,3.5-7.7,7.7-7.7c4.2,0,7.7,3.5,7.7,7.7v24.1c0,4.2-3.5,7.7-7.7,7.7
		C140.5,62.5,137.1,59,137.1,54.8z M213.9,65.8c5.2-6.6,8.2-14.7,8.2-23.4c0-22.6-20.3-40.9-45.4-40.9c-25.1,0-45.4,18.3-45.4,40.9
		c0,22.6,20.3,40.9,45.4,40.9c3.4,0,6.7-0.3,9.8-1"/>
	<path class="st0" d="M186.5,82.3v79.2c0,6.6,5.4,12,12,12h3.5c6.6,0,12-5.4,12-12V67.3c0-0.5,0-1-0.1-1.5
		C207.4,74,197.7,80,186.5,82.3z"/>
</g>
</svg>
