<?xml version="1.0" encoding="utf-8"?>
<!-- Generator: Adobe Illustrator 19.0.0, SVG Export Plug-In . SVG Version: 6.00 Build 0)  -->
<svg version="1.1" id="Layer_1" xmlns="http://www.w3.org/2000/svg" xmlns:xlink="http://www.w3.org/1999/xlink" x="0px" y="0px"
	 viewBox="0 0 80.8 82.1" style="enable-background:new 0 0 80.8 82.1;" xml:space="preserve">
<style type="text/css">
	.st0{fill:none;stroke:#27d4ed;stroke-width:8;stroke-miterlimit:10;}
</style>
<g>
	<path class="st0" d="M67.5,60.4c-0.3,0.2-0.6,0.4-0.8,0.4c-0.9,0.1-2,0.5-2.9,1.1c-0.4,0.3-1.1,1.5-1.6,2.3
		c-0.3,0.6-0.4,1.2-0.5,1.8c-0.1,0.6,0,0.8,0,2.1c0,0.6,0,0.3,0,2.3c0,1.8,0,1.8,0,2.3c0,0.9-0.1,1.5-0.2,2.3
		c-0.1,1.3-0.2,1.9-0.3,2.3c-0.3,0.9-0.8,1.6-1,1.8c-0.3,0.4-0.8,1-1.6,1.3c-0.6,0.3-1.3,0.4-2.6,0.4c-0.6,0-1.7,0-2.8-0.2
		c-1-0.2-1.5-0.4-2.3-0.7c-1.5-0.5-2.3-1.5-2.9-1.9c-1-0.9-1-1-2.7-3c-1.2-1.4-1.1-1.4-2-2.5c-1.1-1.4-1.2-1.5-2.2-2.7
		c-0.5-0.6-1-1.3-2.2-2.5c-1.1-1.1-1.6-1.7-2.2-2.1c-0.8-0.6-2-1.4-3.4-2.4c-1.5-1.1-2.6-2.1-4.3-2.5"/>
	<path class="st0" d="M29,60.4c-0.5,0-1,0-1.6,0c-4.7,0-9.5,0-14.2,0c-0.8,0-5.1-0.1-8.5-3.5c-2.2-2.2-3.5-5.2-3.5-8.5V13.3
		c0-6.6,5.4-12,12-12h54.7c6.6,0,12,5.4,12,12v35.2c0,6.6-5.4,12-12,12c-0.1,0-0.3,0-0.4,0"/>
</g>
</svg>
