<?xml version="1.0" encoding="utf-8"?>
<!-- Generator: Adobe Illustrator 19.0.0, SVG Export Plug-In . SVG Version: 6.00 Build 0)  -->
<svg version="1.1" id="Layer_1" xmlns="http://www.w3.org/2000/svg" xmlns:xlink="http://www.w3.org/1999/xlink" x="0px" y="0px"
	 viewBox="0 0 119.8 131.3" style="enable-background:new 0 0 119.8 131.3;" xml:space="preserve">
<style type="text/css">
	.st0{fill:none;stroke:#7C7C7C;stroke-width:2;stroke-miterlimit:10;}
	.st1{fill:none;stroke:#7A7D80;stroke-width:2;stroke-miterlimit:10;}
</style>
<g>
	<path class="st0" d="M100.1,74.5C98.2,82,94.7,89,89.7,94.9c0.8,0.1,1.7,0.2,2.7,0.1c1.5-0.2,2.8-0.6,3.4-0.9
		c0.4-0.2,1.5-0.6,3.5-2c1.4-1,2.8-2,4.5-3.6c0.9-0.9,2.4-2.6,3.9-5c0.2-0.4,0.9-1.8,2.3-4.6c1.5-3.1,1.7-3.6,1.9-4.4
		c0.4-1.7,0.5-3.3-0.3-4.9c-0.7-1.3-1.6-2.1-3.2-2.9c-0.9-0.5-2.1-0.9-3.8-1.3c-1.2-0.2-2.4-0.3-3.5-0.3
		C101.2,68.4,100.9,71.6,100.1,74.5z"/>
	<path class="st0" d="M118.5,68.4c-0.1-1.2-0.5-2.1-1.2-3.2c-0.6-1-0.9-1.7-2.1-2.6c-0.7-0.6-1.7-1.4-3.3-2c-1.6-0.7-2.9-0.8-4.6-1
		c-0.4,0-2-0.2-4.4-0.1c-0.8,0-1.7,0.1-2.8,0.2c0.5,1.8,0.7,3.7,0.8,5.5c1.1,0,2.3,0.1,3.5,0.3c1.6,0.3,2.8,0.8,3.8,1.3
		c1.6,0.8,2.5,1.5,3.2,2.9c0.8,1.6,0.7,3.2,0.3,4.9c-0.2,0.8-0.4,1.3-1.9,4.4c-1.3,2.8-2,4.2-2.3,4.6c-1.4,2.4-3,4.1-3.9,5
		c-1.7,1.7-3.1,2.7-4.5,3.6c-2,1.4-3.1,1.8-3.5,2c-0.6,0.2-1.8,0.7-3.4,0.9c-1,0.1-1.8,0-2.7-0.1c-1.2,1.4-2.4,2.7-3.7,3.9
		c1.5,0.4,2.9,0.7,4,1c2.5,0.5,3.7,0.7,5.4,0.6c2.7-0.2,4.6-1.1,6.6-2.1c0.6-0.3,2.9-1.4,5.4-3.5c2.6-2.1,4.1-4.1,4.5-4.6
		c1.5-2,2.3-3.7,3.4-5.9c1.1-2.2,1.4-3.5,1.9-5.6c0.3-1.1,0.8-2.9,1.2-6.4C118.5,70.9,118.6,69.8,118.5,68.4z"/>
	<path class="st0" d="M28.4,103.3c-0.3,0-0.6,0.1-1,0.1c-0.3,0-0.6,0.1-0.8,0.1c-10.7-6.8-17.7-17.5-21.1-29c-1-3.3-1.3-8-0.9-11.9
		c0.7-5.9,3.7-11.1,7.8-14.9c8.8-8.2,25.9-9.6,40.9-9.6c15.2,0,33.6,1.3,41.4,10.6c2.8,3.3,4.6,7.1,5.6,11c0.5,1.8,0.7,3.7,0.8,5.5
		c0.2,3.2-0.1,6.3-0.9,9.3C98.2,82,94.7,89,89.7,94.9c-1.2,1.4-2.4,2.7-3.7,3.9c-2,1.8-4.1,3.5-6.4,4.9"/>
	<ellipse class="st0" cx="52.9" cy="54.5" rx="37.9" ry="8.1"/>
	<path class="st0" d="M79.7,103.8C79.6,103.8,79.6,103.8,79.7,103.8c-4.3,2.7-9.2,4.7-14.6,5.9c9.2,1,15.6,2.9,15.6,5.1
		c0,3.2-12.8,5.8-28.6,5.8s-28.6-2.6-28.6-5.8c0-2.4,7.1-4.4,17.3-5.3c-5.3-1.2-10-3.3-14.2-5.9c-15.3,2.5-25.6,7-25.6,12.3
		c0,7.8,23.1,14.2,51.6,14.2c28.5,0,51.6-6.4,51.6-14.2C104.3,110.7,94.4,106.3,79.7,103.8"/>
	<path class="st0" d="M78.1,103.5c0.5,0.1,1,0.2,1.5,0.2c-4.5,2.8-9.4,4.8-14.5,5.9"/>
	<path class="st0" d="M40.8,109.5c-5-1.2-9.8-3.1-14.2-5.9c0.2,0,0.5-0.1,0.7-0.1"/>
	<path class="st0" d="M23.5,114.8c0,3.2,12.8,5.8,28.6,5.8s28.6-2.6,28.6-5.8c0-2.2-6.3-4.2-15.6-5.1c-3.7,0.8-7.6,1.2-11.8,1.2
		c-4.5,0-8.6-0.5-12.5-1.4C30.6,110.4,23.5,112.4,23.5,114.8z"/>
	<path class="st0" d="M40.8,109.5c3.8,0.9,8,1.4,12.5,1.4c4.2,0,8.1-0.4,11.8-1.3"/>
</g>
<path class="st1" d="M49.1,0.7c-0.2,0.2-1.3,1.4-1.1,3c0,0.4,0.1,1.5,0.9,2c1,0.7,2-0.4,3.8,0.1c0.2,0.1,1.3,0.4,2,1.5
	c1,1.6,0.2,3.5,0.1,3.8c-0.4,0.8-0.7,0.9-2.5,2.8c-1.6,1.6-1.4,1.6-2.6,2.9c-1.1,1.1-1.5,1.3-2.5,2.4c-1.4,1.6-1.6,2.1-1.6,2.6
	c0,0.4,0.1,0.8,0.9,1.9c0.6,0.8,1.5,1.9,2.9,3"/>
<path class="st1" d="M56.5,0.7c-0.2,0.2-1.3,1.4-1.1,3c0,0.4,0.1,1.5,0.9,2c1,0.7,2-0.4,3.8,0.1c0.2,0.1,1.3,0.4,2,1.5
	c1,1.6,0.2,3.5,0.1,3.8c-0.4,0.8-0.7,0.9-2.5,2.8c-1.6,1.6-1.4,1.6-2.6,2.9c-1.1,1.1-1.5,1.3-2.5,2.4c-1.4,1.6-1.6,2.1-1.6,2.6
	c0,0.4,0.1,0.8,0.9,1.9c0.6,0.8,1.5,1.9,2.9,3"/>
</svg>
