<?xml version="1.0" encoding="utf-8"?>
<!-- Generator: Adobe Illustrator 19.0.0, SVG Export Plug-In . SVG Version: 6.00 Build 0)  -->
<svg version="1.1" id="Layer_1" xmlns="http://www.w3.org/2000/svg" xmlns:xlink="http://www.w3.org/1999/xlink" x="0px" y="0px"
	 viewBox="0 0 95.8 95.8" style="enable-background:new 0 0 95.8 95.8;" xml:space="preserve">
<style type="text/css">
	.st0{fill:none;stroke:#27D4ED;stroke-width:4;stroke-miterlimit:10;}
	.st1{fill:none;stroke:#27D4ED;stroke-width:4;stroke-linecap:round;stroke-linejoin:round;stroke-miterlimit:10;}
</style>
<circle class="st0" cx="47.2" cy="48.7" r="25.7"/>
<path class="st1" d="M38.9,13.7L41.3,7c2.1-6,10.6-6,12.8,0l2.4,6.7c1.4,3.8,5.7,5.5,9.3,3.8l6.4-3.1c5.7-2.8,11.8,3.2,9,9l-3,6.5
	c-1.7,3.6,0.1,7.9,3.9,9.3l6.7,2.4c6,2.1,6,10.6,0,12.8l-6.7,2.4c-3.8,1.4-5.5,5.7-3.8,9.3l3.1,6.4c2.8,5.7-3.2,11.8-9,9l-6.5-3
	c-3.6-1.7-7.9,0.1-9.3,3.9L54.3,89c-2.1,6-10.6,6-12.8,0l-2.4-6.7c-1.4-3.8-5.7-5.5-9.3-3.8l-6.4,3.1c-5.7,2.8-11.8-3.2-9-9l3-6.5
	c1.7-3.6-0.1-7.9-3.9-9.3l-6.7-2.4c-6-2.1-6-10.6,0-12.8l6.7-2.4c3.8-1.4,5.5-5.7,3.8-9.3l-3.1-6.4c-2.8-5.7,3.2-11.8,9-9l6.5,3
	C33.3,19.3,37.6,17.5,38.9,13.7z"/>
</svg>
