<?xml version="1.0" encoding="utf-8"?>
<!-- Generator: Adobe Illustrator 19.0.0, SVG Export Plug-In . SVG Version: 6.00 Build 0)  -->
<svg version="1.1" id="Layer_1" xmlns="http://www.w3.org/2000/svg" xmlns:xlink="http://www.w3.org/1999/xlink" x="0px" y="0px"
	 viewBox="0 0 94 90.5" style="enable-background:new 0 0 94 90.5;" xml:space="preserve">
<style type="text/css">
	.st0{fill:none;stroke:#27D4ED;stroke-width:4;stroke-miterlimit:10;}
</style>
<g>
	<path class="st0" d="M70.3,57.6c3.1-5.4,4.9-11.6,4.9-18.3C75.3,19.3,59,3.1,39,3.1S2.8,19.3,2.8,39.3S19,75.6,39,75.6
		c9.1,0,17.4-3.4,23.8-8.9"/>
	<path class="st0" d="M89.7,86.5c-2.3,2.2-6.1,2.1-8.3-0.2L62.8,66.7c3-2.6,5.5-5.7,7.6-9.1l19.6,20.6
		C92.2,80.5,92.1,84.3,89.7,86.5z"/>
	<path class="st0" d="M70.3,57.6c-2,3.4-4.6,6.5-7.6,9.1"/>
</g>
</svg>
