<?xml version="1.0" encoding="utf-8"?>
<!-- Generator: Adobe Illustrator 19.0.0, SVG Export Plug-In . SVG Version: 6.00 Build 0)  -->
<svg version="1.1" id="Layer_1" xmlns="http://www.w3.org/2000/svg" xmlns:xlink="http://www.w3.org/1999/xlink" x="0px" y="0px"
	 viewBox="0 0 61 38.3" style="enable-background:new 0 0 61 38.3;" xml:space="preserve">
<style type="text/css">
	.st0{fill:none;stroke:#7A7D80;stroke-width:2;stroke-miterlimit:10;}
	.st1{fill:none;stroke:#7A7D80;stroke-width:2;stroke-linecap:round;stroke-linejoin:round;}
	.st2{fill:none;stroke:#7A7D80;stroke-width:2;stroke-miterlimit:10;}
</style>
<g>
	<g>
		<g>
			<line class="st0" x1="32.3" y1="37.1" x2="32.3" y2="1.2"/>
		</g>
		<g>
			<line class="st1" x1="15.8" y1="11.5" x2="32.3" y2="1.2"/>
		</g>
		<g>
			<line class="st0" x1="32.3" y1="37.1" x2="15.8" y2="27"/>
		</g>
		<g>
			<path class="st0" d="M15.7,27c-1.5,1-3.2,1.5-5.1,1.5c-5.1,0-9.3-4.2-9.3-9.3s4.2-9.3,9.3-9.3c1.9,0,3.7,0.6,5.1,1.5"/>
		</g>
	</g>
</g>
<g>
	<g>
		<g>
			<line class="st0" x1="32.3" y1="1.2" x2="32.3" y2="37.1"/>
		</g>
		<g>
			<line class="st1" x1="15.8" y1="26.9" x2="32.3" y2="37.1"/>
		</g>
		<g>
			<line class="st0" x1="32.3" y1="1.2" x2="15.8" y2="11.4"/>
		</g>
		<g>
			<path class="st0" d="M15.7,26.9c-1.5,1-3.2,1.5-5.1,1.5c-5.1,0-9.3-4.2-9.3-9.3s4.2-9.3,9.3-9.3c1.9,0,3.7,0.6,5.1,1.5"/>
		</g>
	</g>
</g>
<path class="st2" d="M47.4,30.2c5.9-5.7,6-15.1,0.2-21"/>
<path class="st2" d="M53,36.2c9-8.9,9.2-23.4,0.3-32.4"/>
</svg>
