<?xml version="1.0" encoding="utf-8"?>
<!-- Generator: Adobe Illustrator 19.0.0, SVG Export Plug-In . SVG Version: 6.00 Build 0)  -->
<svg version="1.1" id="Layer_1" xmlns="http://www.w3.org/2000/svg" xmlns:xlink="http://www.w3.org/1999/xlink" x="0px" y="0px"
	 viewBox="0 0 149 56.8" style="enable-background:new 0 0 149 56.8;" xml:space="preserve">
<style type="text/css">
	.st0{fill:none;stroke:#7A7D80;stroke-width:2;stroke-miterlimit:10;}
</style>
<path class="st0" d="M27,7.3c1.7-1.7,3.3-3,4.5-3.8c3.2-2.3,4.4-2.5,5-2.5C38,0.8,39.1,1.4,40,1.8c1.8,0.8,3,2,3.5,2.5
	c1.5,1.5,1.3,2,2.3,2.7c1.5,0.9,3.2,0.6,4,0.5c0.6-0.1,2-0.3,3.2-1.3c1.2-1,0.9-1.7,2.2-3c0.4-0.4,1.7-1.7,3.5-2
	c1.5-0.2,2.7,0.4,4.2,1.2c1.4,0.7,1.6,1.1,4.2,3c3.2,2.3,3.7,2.4,4.2,2.3c1.1-0.1,1.2-0.9,3.7-2.5c0.3-0.2,0.4-0.3,2.7-1.5
	c4.6-2.5,4.7-2.6,5.2-2.7c2.1-0.3,3.9,0.6,5.3,1.3c1.5,0.8,2.7,1.8,4.2,3c2.1,1.7,2.1,2.2,3,2.3c1.2,0.2,2.5-0.5,5-2
	c1.6-1,1.6-1.1,3.3-2.2c1.7-1,2.6-1.5,3.8-1.8c1.7-0.4,3.2-0.2,3.7-0.2c0.8,0.1,4,0.7,5.8,3.3c1.1,1.6,0.9,2.7,1.8,3
	c0.9,0.3,2-0.4,3.7-1.7c1.4-1.1,2.5-2.1,3.2-2.8"/>
<path class="st0" d="M6.7,26.9c-3.5,1.4-4.7,6-5.2,7.7c0,0.1-0.1,0.2-0.1,0.4c-0.4,1.4-0.9,4.1,0.1,7.3c1.2,3.6,3.6,5.6,4.5,6.3
	c1.8,1.4,3.1,1.8,8.7,3.3c10,2.8,9.7,2.3,10.8,2.5c5.7,1,9.9,1.3,12,1.2c12.5-0.6,25.1,0.3,37.7,0.3c0,0,28.5,0.1,41.8-0.8
	c2-0.1,5.7-0.5,10.3-1.5c3.1-0.7,5.2-1.4,8.2-2.3c4.3-1.4,5.3-2,5.8-2.3c1.1-0.7,3.5-2.3,5-5.3c1.3-2.5,1.3-4.7,1.3-6.8
	c0.1-3.1,0.1-5.2-1.3-6.8c-1.5-1.7-3.7-2-6.3-2.3c-3.9-0.5-6.9,0.4-7.7,0.7c-2.6,0.8-3.6,1.3-7.3,3.3c0,0-2.7,1.5-7.6,2.2
	c-7.6,1-12.9,2-23.1,1.3c-4.1-0.3-4.9-0.2-8-0.2c-2.1,0-4.6-0.1-9.7-0.3c-3-0.1-5.3-0.2-7.3-0.3c-4.4-0.2-7.7-0.4-8.4-0.5
	c-5.5-0.3-10-0.7-14.2-1c-11-0.9-15-1.4-18.2-1.8c-1.7-0.3-4.2-0.5-7.4-1.1c-0.9-0.2-2.5-0.5-4.4-0.9C8.6,27.1,8.2,26.3,6.7,26.9z"
	/>
<path class="st0" d="M5.8,23.3"/>
<polyline class="st0" points="1.4,35 9.4,38.2 17.1,40.7 26.3,42.2 34.8,43.3 43,43.5 50.8,43.8 60.9,43.8 71.8,43.8 82,43.6
	92.3,43.2 103.8,42.8 115.1,42.2 123.8,41.1 132.4,39.4 140.9,37.2 147.8,35.3 "/>
<path class="st0" d="M6.8,27c-0.3-0.3-0.8-1-1-2c-0.1-0.7,0-1.3,0.1-1.7c0.4-1.7,1.6-2.7,2-3c1.3-1.1,2.7-1.4,3.9-1.6
	c1.5-0.3,2-0.1,5.6,0c2.1,0.1,3.3,0,5.6,0c2.8-0.1,3.3-0.1,3.9-0.4c1.4-0.5,1.4-1.1,3.5-2.5c1.7-1.1,3.1-1.7,3.6-1.9
	c1.1-0.4,2.5-0.9,4.3-1c0.8,0,1.7-0.1,2.8,0.3c2,0.6,2.4,1.7,4,2.5c1.3,0.6,2.2,0.5,4.8,0.4c3.5-0.1,1.8,0.2,8.6,0.3
	c5,0,4.7-0.2,8.5-0.1c1.5,0,2.8,0.2,6,0.3c1.3,0,2.8,0.1,3.5,0.1c4.4,0.1,6.6-0.8,10.4-0.9c5.7-0.2,5.6,0.6,11.4,0.4
	c3.9-0.2,4.5-0.6,8.9-0.6c1,0,2.9,0,6.8,0c4,0,4.7,0,6-0.3c1.4-0.3,2.7-0.8,5.3-1.8c2.2-0.8,2.9-1.2,4.4-1.5c1.7-0.3,2.7-0.5,4-0.1
	c2.3,0.8,3.3,3,3.5,3.5c0.9,2.1,0.3,4,0,5.1c-0.2,0.9-0.8,2.7-2.4,4.1c-1.3,1.2-2.5,1.2-3.9,2.9c-0.5,0.6-0.8,1.2-1,1.5"/>
<path class="st0" d="M20.8,28.5c0-0.6,0.1-1.4,0.6-1.9c0.5-0.6,1.4-0.7,2.2-0.8c0.9-0.1,1.2-0.1,2.1-0.1c1.7-0.1,1.5-0.2,3.1-0.4
	c1.1-0.2,1,0,3.5-0.1c1.1,0,1.8-0.1,2.8-0.2c1-0.1,1.8-0.3,3.4-0.7c1.4-0.3,2-0.5,2.6-0.7c1.4-0.5,1.4-0.8,2.4-1
	c0.4-0.1,0.5-0.1,2.6-0.1c2-0.1,2.3-0.1,2.6-0.3c0.9-0.4,1.5-1,1.8-1.3c0.3-0.3,0.8-1,1.1-1.9c0.3-1.2,0.1-2.2-0.1-2.7"/>
<path class="st0" d="M20.9,29.2c0-0.2-0.1-0.4-0.1-0.7"/>
<path class="st0" d="M21.1,28.7c-0.1,0.6-0.1,0.8-0.1,0.8c0,0-0.1-0.1-0.1-0.2"/>
<path class="st0" d="M21.2,28.1c0,0.2,0,0.4-0.1,0.5"/>
<path class="st0" d="M43.6,32.8c0.1-0.1,0.2-0.3,0.3-0.6c0.1-0.3,0.2-0.6,0.2-0.7c0.1-0.5,0.4-0.9,0.9-1.3c0.7-0.7,1.4-1.1,1.8-1.4
	c2.4-1.6,2.3-1.8,3.4-2.3c0.9-0.4,1.6-0.5,2.3-0.7c0.7-0.1,1.7-0.3,4.3-0.3c2.2,0,4.2,0.1,4.2,0.1c2.3,0.1,2.8,0.2,3.8-0.1
	c1.2-0.3,2.1-0.9,2.6-1.2c1.1-0.7,1.8-1.3,2-1.6c0.3-0.3,0.5-0.5,1.4-1.8c1.1-1.4,1.3-1.6,1.6-2.1c0.4-0.7,0.5-1.4,0.5-1.9"/>
<path class="st0" d="M76.4,34.9c-0.1,0-0.3-2.2,0.9-4.1c0.6-0.9,1.3-1.4,1.7-1.6c1.1-0.7,2.2-0.9,3.6-1.2c1.5-0.3,1.5-0.1,2.8-0.3
	c0.9-0.1,1.2-0.3,4.6-1.3c2.7-0.8,3-0.8,3.5-0.8c1.4-0.1,1.7,0.2,3.3,0.1c1.1,0,1.9-0.2,3.1-0.5c2.4-0.6,3.6-0.9,4.3-1.8
	c0.1-0.1,0.3-0.8,0.9-2.3c0.7-1.9,0.8-2.4,0.9-3c0.1-1,0.1-1.8,0-2.3"/>
<polyline class="st0" points="76.7,33.7 76.7,33.7 76.7,33.7 "/>
<path class="st0" d="M118.8,15.7c0.7,0.6,1.3,1.1,1.9,1.5c1,0.8,1.3,1.1,1.8,1.5c0.7,0.7,1.1,1.1,1.3,1.7c0.4,1,0.1,1.9,0.1,2.1
	c-0.3,1-0.9,1.5-1.6,2.1c-0.8,0.7-1,0.6-2.7,1.7c-1.2,0.8-1.1,0.8-2.3,1.6c-1.2,0.7-2.1,1.2-2.8,1.6c-1.4,0.8-2.1,1.1-2.6,1.3
	c-1.7,0.6-3.3,0.6-4.1,0.6c-1.5,0-1.6-0.2-2.6,0c-1.2,0.3-2.1,0.9-2.6,1.3c-0.8,0.7-1.3,1.5-1.5,2"/>
</svg>
